# xmcd
#
# Track frame offsets: 
#        150
#        13418
#        28589
#        38178
#        52796
#        63772
#        77549
#        95820
#        114071
#        129081
#        145484
#
# Disc length: 2095 seconds
#
# Revision: 0
# Processed by: cddbd v1.5.2PL0 Copyright (c) Steve Scherf et al.
# Submitted via: ExactAudioCopyFreeDBPlugin 1.0
#
DISCID=84082d0b
DTITLE=Marty Stuart - Icon
DYEAR=2012
DGENRE=Country
TTITLE0=Burn Me Down
TTITLE1=Now That's Country
TTITLE2=Don't Be Cruel (to a Heart That's True)
TTITLE3=Tempted
TTITLE4=Till I Found You
TTITLE5=Kiss Me, I'm Gone
TTITLE6=High on a Mountain Top
TTITLE7=You Can't Stop Love
TTITLE8=Thanks to You
TTITLE9=Western Girls
TTITLE10=Hillbilly Rock
EXTD=
EXTT0=
EXTT1=
EXTT2=
EXTT3=
EXTT4=
EXTT5=
EXTT6=
EXTT7=
EXTT8=
EXTT9=
EXTT10=
PLAYORDER=
